<?xml version="1.0" encoding="utf-8"?>
<!-- Generator: Adobe Illustrator 17.0.0, SVG Export Plug-In . SVG Version: 6.00 Build 0)  -->
<!DOCTYPE svg PUBLIC "-//W3C//DTD SVG 1.1//EN" "http://www.w3.org/Graphics/SVG/1.1/DTD/svg11.dtd">
<svg version="1.1" id="Layer_1" xmlns="http://www.w3.org/2000/svg" xmlns:xlink="http://www.w3.org/1999/xlink" x="0px" y="0px"
	 width="374.986px" height="317.411px" viewBox="0 0 374.986 317.411" enable-background="new 0 0 374.986 317.411"
	 xml:space="preserve">
<g>
	<path d="M196.151,52.215c-2.277,16.481-4.502,32.243-6.625,48.017c-6.415,47.661-12.931,95.309-19.038,143.009
		c-0.991,7.74-3.172,13.423-10.858,16.673c-12.58,5.32-24.858,11.347-37.358,16.863c-3.608,1.592-4.888,0.384-4.387-3.201
		c2.997-21.443,5.993-42.886,8.935-64.337c4.219-30.762,8.406-61.528,12.575-92.296c1.262-9.309,2.566-18.617,3.558-27.957
		c0.417-3.922,1.693-7.044,5.031-9.229c14.766-9.663,29.499-19.376,44.313-28.965C194.905,49.105,196.248,50.015,196.151,52.215z"/>
	<path d="M211.594,214.838c0.108-1.507,0.129-3.026,0.338-4.519c4.284-30.596,8.644-61.182,12.876-91.785
		c3.643-26.348,7.147-52.716,10.707-79.075c0.424-3.141,1.8-5.493,5.196-5.952c17.028-2.3,34.062-4.564,51.096-6.821
		c3.65-0.484,5.096,1.019,4.152,4.694c-5.188,20.195-9.507,40.659-15.7,60.54c-13.763,44.18-34.169,85.046-63.898,120.876
		c-0.922,1.111-2.251,1.884-3.39,2.815C212.511,215.353,212.052,215.096,211.594,214.838z"/>
	<path d="M99.682,132.412c0,1.355,0.163,2.733-0.025,4.062c-2.542,17.949-5.219,35.879-7.693,53.838
		c-4.148,30.116-8.197,60.245-12.224,90.378c-0.525,3.927-2.23,6.011-6.46,5.972c-13.824-0.128-27.653,0.09-41.473-0.196
		c-8.05-0.167-8.163-0.8-5.96-8.361c9.834-33.75,22.772-66.257,40.162-96.813c9.035-15.875,19.41-30.986,29.107-46.488
		c0.841-1.345,1.14-3.028,1.691-4.554C97.765,130.97,98.723,131.691,99.682,132.412z"/>
	<path d="M311.496,74.471c0.261-1.496,0.274-1.657,0.318-1.809c4.897-16.776,6.066-34.068,7.224-51.375
		c0.337-5.035,3.991-7.367,8.378-8.632c14.341-4.134,28.697-8.221,43.066-12.258c2.253-0.633,4.778-0.966,4.481,2.668
		c-1.034,12.652-2.13,25.3-3.287,37.942c-0.391,4.272-1.099,8.514-1.538,12.783c-0.385,3.749-2.377,6.389-5.808,7.45
		c-16.387,5.068-32.818,9.998-49.291,14.779C314.002,76.32,311.938,76.278,311.496,74.471z"/>
	<path fill="#56CAF2" stroke="#FFFFFF" stroke-miterlimit="10" d="M0,292.866c0,0,276.216,51.836,308.907-205.424
		c16.979-4.64,41.057-12.639,58.926-18.399C289.391,426.775,0,292.866,0,292.866z"/>
</g>
</svg>
