<?xml version="1.0" encoding="UTF-8"?>
<svg width="100" height="100" enable-background="new 0 0 374.986 317.411" version="1.1" viewBox="0 0 374.99 317.41" xml:space="preserve" xmlns="http://www.w3.org/2000/svg">
                    <path d="m196.15 52.22c-2.28 16.48-4.5 32.24-6.62 48.02-6.41 47.66-12.93 95.31-19.04 143.01-0.99 7.74-3.17 13.42-10.86 16.67-12.58 5.32-24.86 11.35-37.36 16.86-3.61 1.59-4.89 0.38-4.39-3.2 3-21.44 5.99-42.89 8.94-64.34 4.22-30.76 8.41-61.53 12.58-92.3 1.26-9.31 2.57-18.62 3.56-27.96 0.42-3.92 1.69-7.04 5.03-9.23 14.77-9.66 29.5-19.38 44.31-28.96 2.61-1.68 3.95-0.77 3.85 1.43z" fill="#bcb598"/>
                    <path d="m211.59 214.84c0.11-1.51 0.13-3.03 0.34-4.52 4.28-30.6 8.64-61.18 12.88-91.78 3.64-26.35 7.15-52.72 10.71-79.07 0.42-3.14 1.8-5.49 5.2-5.95 17.03-2.3 34.06-4.56 51.1-6.82 3.65-0.48 5.1 1.02 4.15 4.69-5.19 20.2-9.51 40.66-15.7 60.54-13.76 44.18-34.17 85.05-63.9 120.88-0.92 1.11-2.25 1.88-3.39 2.82-0.47-0.28-0.93-0.53-1.39-0.79z" fill="#bcb598"/>
                    <path d="m99.68 132.41c0 1.36 0.16 2.73-0.02 4.06-2.54 17.95-5.22 35.88-7.69 53.84-4.15 30.12-8.2 60.25-12.22 90.38-0.52 3.93-2.23 6.01-6.46 5.97-13.82-0.13-27.65 0.09-41.47-0.2-8.05-0.17-8.16-0.8-5.96-8.36 9.83-33.75 22.77-66.26 40.16-96.81 9.04-15.87 19.41-30.99 29.11-46.49 0.84-1.34 1.14-3.03 1.69-4.55 0.95 0.72 1.9 1.44 2.86 2.16z" fill="#bcb598"/>
                    <path d="m311.5 74.47c0.26-1.5 0.27-1.66 0.32-1.81 4.9-16.78 6.07-34.07 7.22-51.37 0.34-5.03 3.99-7.37 8.38-8.63 14.34-4.13 28.7-8.22 43.07-12.26 2.25-0.63 4.78-0.97 4.48 2.67-1.03 12.65-2.13 25.3-3.29 37.94-0.39 4.27-1.1 8.51-1.54 12.78-0.38 3.75-2.38 6.39-5.81 7.45-16.39 5.07-32.82 10-49.29 14.78-1.04 0.3-3.1 0.26-3.54-1.55z" fill="#bcb598"/>
                    <path d="M0 292.87c0 0 276.22 51.84 308.91-205.42 16.98-4.64 41.06-12.64 58.93-18.4C289.39 426.78 0 292.87 0 292.87z" fill="#56CAF2" stroke="#fff" stroke-miterlimit="10"/> </svg>
